<svg width="38" height="38" viewBox="0 0 38 38" fill="none" xmlns="http://www.w3.org/2000/svg">
<g id="streamline:interface-help-customer-support-1-customer-headset-help-microphone-phone-support">
<path id="Vector" d="M8.57543 19.0969V12.1799C8.59597 10.8203 8.88461 9.47805 9.42481 8.23014C9.96501 6.98223 10.7462 5.85317 11.7235 4.90765C12.7008 3.96214 13.8551 3.21875 15.1202 2.72009C16.3854 2.22142 17.7365 1.97729 19.0961 2.00166C20.4558 1.97729 21.8069 2.22142 23.072 2.72009C24.3371 3.21875 25.4914 3.96214 26.4688 4.90765C27.4461 5.85317 28.2272 6.98223 28.7674 8.23014C29.3076 9.47805 29.5963 10.8203 29.6168 12.1799V19.0969M24.3565 32.9047C25.7516 32.9047 27.0896 32.3505 28.0761 31.364C29.0626 30.3776 29.6168 29.0396 29.6168 27.6446V21.727M24.3565 32.9047C24.3565 33.7766 24.0101 34.6128 23.3935 35.2293C22.7769 35.8459 21.9407 36.1922 21.0687 36.1922H17.1235C16.2515 36.1922 15.4153 35.8459 14.7987 35.2293C14.1822 34.6128 13.8358 33.7766 13.8358 32.9047C13.8358 32.0328 14.1822 31.1966 14.7987 30.58C15.4153 29.9635 16.2515 29.6171 17.1235 29.6171H21.0687C21.9407 29.6171 22.7769 29.9635 23.3935 30.58C24.0101 31.1966 24.3565 32.0328 24.3565 32.9047ZM4.63017 15.1519H7.26034C7.60913 15.1519 7.94362 15.2904 8.19025 15.537C8.43688 15.7837 8.57543 16.1181 8.57543 16.4669V24.357C8.57543 24.7058 8.43688 25.0403 8.19025 25.2869C7.94362 25.5335 7.60913 25.6721 7.26034 25.6721H4.63017C3.93261 25.6721 3.26361 25.395 2.77036 24.9017C2.27711 24.4085 2 23.7395 2 23.042V17.7819C2 17.0844 2.27711 16.4154 2.77036 15.9222C3.26361 15.429 3.93261 15.1519 4.63017 15.1519ZM33.5621 25.6721H30.9319C30.5831 25.6721 30.2486 25.5335 30.002 25.2869C29.7554 25.0403 29.6168 24.7058 29.6168 24.357V16.4669C29.6168 16.1181 29.7554 15.7837 30.002 15.537C30.2486 15.2904 30.5831 15.1519 30.9319 15.1519H33.5621C34.2596 15.1519 34.9286 15.429 35.4219 15.9222C35.9151 16.4154 36.1922 17.0844 36.1922 17.7819V23.042C36.1922 23.7395 35.9151 24.4085 35.4219 24.9017C34.9286 25.395 34.2596 25.6721 33.5621 25.6721Z" stroke="#D83F31" stroke-width="3.5" stroke-linecap="round" stroke-linejoin="round"/>
</g>
</svg>
